<svg xmlns="http://www.w3.org/2000/svg" xmlns:xlink="http://www.w3.org/1999/xlink" viewBox="0 0 500 488.58"><defs><style>.cls-1{fill:url(#未命名漸層_105);}</style><linearGradient id="未命名漸層_105" x1="-42.12" y1="-37.76" x2="546.31" y2="423.4" gradientUnits="userSpaceOnUse"><stop offset="0" stop-color="#a9ce60"/><stop offset="1" stop-color="#25b7ac"/></linearGradient></defs><g id="圖層_2" data-name="圖層 2"><path class="cls-1" d="M471.43,0H28.57A28.57,28.57,0,0,0,0,28.57V353.79a28.57,28.57,0,0,0,28.57,28.56H154.15V470c0,16.48,19.93,24.74,31.58,13.08L286.5,382.35H471.43A28.57,28.57,0,0,0,500,353.79V28.57A28.57,28.57,0,0,0,471.43,0ZM388.71,119.07,242.2,265.58l-26.93,26.93a6,6,0,0,1-8.53,0l-26.93-26.93-68.52-68.52a6,6,0,0,1,0-8.54L134,165.86a6,6,0,0,1,8.53,0l64.26,64.26a6,6,0,0,0,8.53,0L357.52,87.87a6,6,0,0,1,8.53,0l22.66,22.66A6,6,0,0,1,388.71,119.07Z"/></g></svg>